<?xml version="1.0" encoding="utf-8"?>
<!-- Generator: Adobe Illustrator 27.0.1, SVG Export Plug-In . SVG Version: 6.00 Build 0)  -->
<svg version="1.1" id="Layer_1" xmlns="http://www.w3.org/2000/svg" xmlns:xlink="http://www.w3.org/1999/xlink" x="0px" y="0px"
	 viewBox="0 0 24 24" style="enable-background:new 0 0 24 24;" xml:space="preserve">
<style type="text/css">
	.st0{fill:#FFFFFF;}
</style>
<g>
	<path class="st0" d="M12.39,23.17c-0.06,0-0.13,0-0.19,0h-0.38c-3.03-0.01-5.64,0-7.62-0.56c-2.37-0.67-3.52-2.08-3.52-4.33
		c0-2.55,1.64-4.96,4.49-6.61c0.25-0.14,0.57-0.09,0.76,0.12c1.29,1.45,3.33,2.19,6.08,2.19c2.42,0,4.42-0.75,5.79-2.17
		c0.19-0.2,0.49-0.24,0.74-0.11c3.05,1.73,4.8,4.13,4.8,6.58c0,2.25-1.15,3.66-3.52,4.33C17.87,23.16,15.33,23.17,12.39,23.17z
		 M12,21.95h0.19c2.8-0.01,5.47,0,7.29-0.51c1.85-0.52,2.64-1.46,2.64-3.16c0-1.87-1.41-3.82-3.8-5.29c-1.59,1.44-3.76,2.2-6.32,2.2
		c-2.88,0-5.11-0.75-6.64-2.23c-2.22,1.41-3.48,3.33-3.48,5.32c0,1.69,0.79,2.64,2.64,3.16c1.82,0.51,4.5,0.51,7.29,0.51H12z"/>
</g>
<g>
	<path class="st0" d="M12,11.98c-4.69,0-5.32-2.69-5.32-5.32c0-3.45,2.14-5.77,5.32-5.77c3.46,0,5.33,2.97,5.33,5.77
		C17.33,10.09,15.44,11.98,12,11.98z M12,2.11c-3.03,0-4.11,2.35-4.11,4.55c0,2.66,0.65,4.1,4.11,4.1c2.77,0,4.11-1.34,4.11-4.1
		C16.11,4.46,14.67,2.11,12,2.11z"/>
</g>
</svg>
