<svg width="23" height="23" viewBox="0 0 23 23" fill="none" xmlns="http://www.w3.org/2000/svg">
<g clip-path="url(#clip0_1508_34)">
<path d="M20.1957 10.6601C19.2305 9.63934 18.39 8.73383 18.2402 7.00513H20.2373C21.0611 7.00513 21.835 6.63469 22.3593 6.00906C22.8918 5.37521 23.1165 4.53555 22.9667 3.71236C22.3593 0.427819 19.7547 -0.140184 18.4233 0.0244543H6.09949C4.21889 0.0244543 2.71274 0.567761 1.63929 1.63791C0 3.2596 0 5.49868 0 5.58924C0 8.89847 1.43126 10.5284 2.69609 11.9607C3.82779 13.2449 4.80137 14.348 4.80137 16.5459C4.80137 19.7481 3.60311 19.9375 3.02894 20.028C2.14689 20.168 1.52279 19.8222 1.28148 19.0567C1.19826 18.5957 1.32308 18.1265 1.62265 17.7725C1.91389 17.4267 2.32996 17.2292 2.78763 17.2292C3.1288 17.2292 3.41172 16.9493 3.4034 16.6036C3.4034 16.266 3.12048 15.9944 2.77931 15.9944C1.9555 15.9944 1.18162 16.3648 0.657381 16.9905C0.124819 17.6243 -0.0998553 18.464 0.0499276 19.2872C0.59081 22.2507 2.75434 22.9998 4.15232 22.9998C4.3021 22.9998 4.45188 22.9915 4.5767 22.9751H16.9005C18.7894 22.9751 20.2873 22.4318 21.3607 21.3616C22.9917 19.7399 23 17.4926 23 17.402C23 13.6236 21.5105 12.0431 20.1874 10.6519L20.1957 10.6601ZM18.5481 1.25924C18.8144 1.22632 21.1943 1.01229 21.7268 3.93462C21.8101 4.39561 21.6852 4.86483 21.394 5.2188C21.1028 5.56454 20.6867 5.76211 20.229 5.76211H7.0398C7.56404 5.013 7.83864 4.04987 7.7055 3.20198C7.58068 2.37878 7.28111 1.72846 6.82344 1.25924H18.5564H18.5481ZM20.4787 20.4973C19.6465 21.3204 18.4399 21.7403 16.9005 21.7403H4.4602C4.3021 21.765 3.39508 21.8391 2.57127 21.2957C2.59624 21.2957 2.6212 21.2957 2.64617 21.2957C2.82923 21.2957 3.02062 21.2793 3.22033 21.2464C5.14255 20.9335 6.04124 19.4436 6.04124 16.5459C6.04124 13.887 4.81802 12.4958 3.62808 11.1458C2.40485 9.74636 1.23987 8.42925 1.23987 5.581C1.23987 5.56454 1.23987 3.76175 2.52135 2.50226C2.81259 2.20591 3.17873 1.98365 3.56151 1.79432C3.93596 1.67907 4.90123 1.45681 5.60854 1.86841C6.05789 2.13183 6.34913 2.64221 6.45731 3.38308C6.54884 3.98401 6.30753 4.74958 5.87482 5.25173C5.67511 5.48222 5.35058 5.76211 4.92619 5.76211C4.88459 5.76211 4.84298 5.77857 4.80137 5.7868C4.75977 5.79503 4.71816 5.79503 4.68488 5.8115C4.64327 5.82796 4.60999 5.86089 4.5767 5.88559C4.54342 5.90205 4.51013 5.91851 4.48517 5.94321C4.45188 5.97614 4.43524 6.00906 4.4186 6.04199C4.39363 6.07492 4.36867 6.09962 4.35203 6.13254C4.33538 6.16547 4.33538 6.20663 4.32706 6.24779C4.31874 6.28895 4.3021 6.33011 4.3021 6.37127C4.3021 6.42066 4.31874 6.47005 4.33538 6.51944C4.33538 6.55237 4.33538 6.5853 4.35203 6.60999C4.37699 6.65939 4.41028 6.70055 4.44356 6.74994C4.4602 6.7664 4.46852 6.7911 4.48517 6.80756C4.52677 6.84872 4.5767 6.87342 4.62663 6.89811C4.65159 6.90634 4.66823 6.93104 4.68488 6.93927C4.75977 6.9722 4.84298 6.98866 4.92619 6.98866H16.9754C17.1335 9.20305 18.2069 10.372 19.2637 11.4915C20.5369 12.8416 21.7352 14.1093 21.7352 17.402C21.7352 17.4185 21.7352 19.2213 20.4537 20.4808L20.4787 20.4973Z" fill="white"/>
<path d="M8.47936 14.6776H17.5412C17.8824 14.6776 18.1653 14.3977 18.1653 14.0602C18.1653 13.8544 18.0655 13.097 16.759 11.8622C15.9685 11.1131 15.6689 10.2406 15.6689 10.2406C15.5857 9.98537 15.3444 9.8125 15.0781 9.8125H6.29919C6.04123 9.8125 5.81655 9.96891 5.7167 10.1994C5.62516 10.4381 5.68341 10.7015 5.8748 10.8744C7.48913 12.3644 7.86358 14.159 7.86358 14.1672C7.92183 14.4553 8.17979 14.6693 8.47936 14.6693V14.6776ZM7.69716 11.0473H14.6537C14.8535 11.4671 15.2446 12.1421 15.8936 12.7595C16.1765 13.0312 16.3846 13.2534 16.5344 13.451H8.96199C8.78725 12.9077 8.42111 12.0022 7.70548 11.0555L7.69716 11.0473Z" fill="white"/>
<path d="M12.4902 16.5708H8.68739C8.34622 16.5708 8.06329 16.8507 8.06329 17.1882C8.06329 17.5257 8.34622 17.8056 8.68739 17.8056H12.4902C12.8314 17.8056 13.1143 17.5257 13.1143 17.1882C13.1143 16.8507 12.8314 16.5708 12.4902 16.5708Z" fill="white"/>
<path d="M18.5897 16.5708H14.8285C14.4873 16.5708 14.2044 16.8507 14.2044 17.1882C14.2044 17.5257 14.4873 17.8056 14.8285 17.8056H18.5897C18.9309 17.8056 19.2138 17.5257 19.2138 17.1882C19.2138 16.8507 18.9309 16.5708 18.5897 16.5708Z" fill="white"/>
</g>
<defs>
<clipPath id="clip0_1508_34">
<rect width="23" height="23" fill="white"/>
</clipPath>
</defs>
</svg>
