<svg width="23" height="18" viewBox="0 0 23 18" fill="none" xmlns="http://www.w3.org/2000/svg">
<g clip-path="url(#clip0_1255_4946)">
<path d="M19.9432 0H3.06502C1.37228 0 0 1.36699 0 3.05321V14.9468C0 16.633 1.37228 18 3.06502 18H19.9432C21.6359 18 23.0082 16.633 23.0082 14.9468V3.05321C23.0082 1.36699 21.6359 0 19.9432 0ZM21.7756 13.3424L16.1058 8.76671L21.7756 4.8131V13.3424ZM3.06502 1.22783H19.9432C20.9539 1.22783 21.7756 2.04638 21.7756 3.05321V3.32333L12.2272 9.97817C11.841 10.2483 11.3233 10.2483 10.9453 9.97817L1.23258 3.21692V3.05321C1.23258 2.04638 2.05431 1.22783 3.06502 1.22783ZM1.23258 4.71487L7.05037 8.76671L1.23258 13.4652V4.71487ZM19.9432 16.7722H3.06502C2.08717 16.7722 1.2901 16.0027 1.2408 15.0368L8.10218 9.50341L10.2222 10.985C10.6249 11.2633 11.1015 11.4106 11.5698 11.4106C12.0382 11.4106 12.5148 11.2715 12.9175 10.985L15.0375 9.50341L21.7592 14.9222V14.9468C21.7592 15.9536 20.9375 16.7722 19.9268 16.7722H19.9432Z" fill="white"/>
</g>
<defs>
<clipPath id="clip0_1255_4946">
<rect width="23" height="18" fill="white"/>
</clipPath>
</defs>
</svg>
