<?xml version="1.0" encoding="utf-8"?>
<!-- Generator: Adobe Illustrator 27.0.1, SVG Export Plug-In . SVG Version: 6.00 Build 0)  -->
<svg version="1.1" id="Layer_1" xmlns="http://www.w3.org/2000/svg" xmlns:xlink="http://www.w3.org/1999/xlink" x="0px" y="0px"
	 viewBox="0 0 24 24" style="enable-background:new 0 0 24 24;" xml:space="preserve">
<style type="text/css">
	.st0{fill:#FFFFFF;}
</style>
<g>
	<path class="st0" d="M15.87,23.53c-0.11,0-0.22-0.03-0.32-0.09c-0.19-0.11-0.3-0.32-0.3-0.53v-8.36c0-0.19,0.08-0.36,0.23-0.48
		l1.79-1.46v-2l-3.29,2.33l0.01,3.08c0,0.18-0.08,0.36-0.22,0.48l-1.42,1.19c-0.24,0.2-0.59,0.19-0.82-0.02l-1.31-1.19
		c-0.13-0.12-0.2-0.29-0.2-0.46l0.01-3.08l-3.4-2.35v2.02l1.79,1.46c0.15,0.12,0.23,0.3,0.23,0.48v8.27c0,0.2-0.1,0.39-0.26,0.51
		C8.21,23.45,8,23.48,7.81,23.42c-0.25-0.09-6.12-2.15-6.12-7.2v-1.68c0-0.03,0-0.05,0.01-0.08l0.02-1.3v-5.3
		c0-3.57,3.92-7.43,10.25-7.43c6.42,0,10.25,3.79,10.25,7.46l0.02,8.44c0,4.02-3.63,5.88-5.59,6.88l-0.49,0.25
		C16.07,23.51,15.97,23.53,15.87,23.53z M16.49,14.85v7.04c1.93-1,4.5-2.53,4.5-5.56l-0.02-8.44c0-3.05-3.37-6.21-9.01-6.21
		c-6.14,0-9.01,3.69-9.01,6.19l-0.03,8.36c0,3.13,2.97,4.95,4.45,5.67v-7.04L5.6,13.39c-0.15-0.12-0.23-0.3-0.23-0.48v-3.5
		c0-0.23,0.13-0.44,0.33-0.55c0.21-0.11,0.45-0.09,0.64,0.04L11,12.11c0.17,0.12,0.27,0.31,0.27,0.51l-0.01,3.13l0.7,0.64l0.78-0.65
		l-0.01-3.11c0-0.2,0.1-0.39,0.26-0.51l4.54-3.21c0.19-0.13,0.44-0.15,0.65-0.04c0.21,0.11,0.34,0.32,0.34,0.55v3.5
		c0,0.19-0.08,0.36-0.23,0.48L16.49,14.85z"/>
</g>
</svg>
