<svg width="21" height="23" viewBox="0 0 21 23" fill="none" xmlns="http://www.w3.org/2000/svg">
<g clip-path="url(#clip0_1508_48)">
<path d="M20.4005 6.76172H0.599543C0.271793 6.76172 0 7.04311 0 7.38245V12.6131C0 12.9524 0.271793 13.2338 0.599543 13.2338H2.08641V22.3792C2.08641 22.7185 2.3582 22.9999 2.68595 22.9999H18.322C18.6498 22.9999 18.9216 22.7185 18.9216 22.3792V13.2338H20.4085C20.7362 13.2338 21.008 12.9524 21.008 12.6131V7.38245C21.008 7.04311 20.7362 6.76172 20.4085 6.76172H20.4005ZM19.8009 11.9924H15.4282C15.1005 11.9924 14.8287 12.2738 14.8287 12.6131C14.8287 12.9524 15.1005 13.2338 15.4282 13.2338H17.7145V21.7585H3.2855V13.2338H5.57175C5.8995 13.2338 6.1713 12.9524 6.1713 12.6131C6.1713 12.2738 5.8995 11.9924 5.57175 11.9924H1.19909V8.00317H19.8009V11.9924Z" fill="white"/>
<path d="M7.84203 16.1638C8.04987 16.2631 8.29768 16.2382 8.47355 16.0893L10.496 14.3926L12.4865 16.081C12.5984 16.172 12.7343 16.2217 12.8702 16.2217C12.9581 16.2217 13.0461 16.2051 13.126 16.1638C13.3338 16.0644 13.4697 15.841 13.4697 15.601V9.65027C13.4697 9.31094 13.1979 9.02954 12.8702 9.02954C12.5424 9.02954 12.2707 9.31094 12.2707 9.65027V14.2933L10.8797 13.1098C10.6639 12.9194 10.3441 12.9194 10.1203 13.1098L8.69738 14.3016V9.65027C8.69738 9.31094 8.42558 9.02954 8.09783 9.02954C7.77008 9.02954 7.49829 9.31094 7.49829 9.65027V15.601C7.49829 15.841 7.63419 16.0562 7.84203 16.1638Z" fill="white"/>
<path d="M7.49026 6.00864H13.5177C15.0605 6.00864 18.274 6.00864 18.274 2.92983C18.274 1.18352 17.1709 0.00827636 15.5321 0.00827636C14.0932 0.00827636 13.054 0.827636 10.504 4.08024C7.96191 0.819359 6.9227 0 5.48379 0C3.84504 0 2.74188 1.17524 2.74188 2.92155C2.74188 6.00036 5.95543 6.00036 7.49826 6.00036L7.49026 6.00864ZM15.5321 1.24145C16.4994 1.24145 17.075 1.87046 17.075 2.92155C17.075 4.29543 16.1796 4.75891 13.5177 4.75891H11.5032C13.8774 1.74631 14.6608 1.23318 15.5321 1.23318V1.24145ZM5.48379 1.24145C6.34714 1.24145 7.13853 1.75459 9.51272 4.76718H7.49826C4.84428 4.76718 3.94097 4.30371 3.94097 2.92983C3.94097 1.87873 4.51653 1.24973 5.48379 1.24973V1.24145Z" fill="white"/>
</g>
<defs>
<clipPath id="clip0_1508_48">
<rect width="21" height="23" fill="white"/>
</clipPath>
</defs>
</svg>
