<?xml version="1.0" encoding="utf-8"?>
<!-- Generator: Adobe Illustrator 27.2.0, SVG Export Plug-In . SVG Version: 6.00 Build 0)  -->
<svg version="1.1" id="Layer_1" xmlns="http://www.w3.org/2000/svg" xmlns:xlink="http://www.w3.org/1999/xlink" x="0px" y="0px"
	 viewBox="0 0 1011.59 252.4" style="enable-background:new 0 0 1011.59 252.4;" xml:space="preserve">
<style type="text/css">
	.st0{fill:#057AF0;}
</style>
<path class="st0" d="M376.52,97.11c8.2-8,19.4-14.2,34.2-14.2c21.6,0,37.6,14.8,37.6,38.4v67.6h-37.2v-57c0-8.6-5-15.8-14-15.8
	s-13.8,7.2-13.8,15.8v57h-37.2v-57c0-8.6-5-15.8-14-15.8s-13.8,7.2-13.8,15.8v57h-37.2V85.31h37.2v10c5.8-6.6,15.6-12.4,28.6-12.4
	C359.72,82.91,370.12,87.91,376.52,97.11z"/>
<path class="st0" d="M578.32,85.31v103.6h-37.2v-10c-5.6,6-15.8,12.4-30.2,12.4c-27.6,0-50.8-23-50.8-54.2
	c0-31.2,23.2-54.2,50.8-54.2c14.4,0,24.6,6.4,30.2,12.4v-10H578.32z M519.52,159.91c13,0,22.4-10,22.4-22.8s-9.4-22.8-22.4-22.8
	c-13,0-22.4,10-22.4,22.8S506.52,159.91,519.52,159.91z"/>
<path class="st0" d="M628.52,85.31l15.8,25.2l16.8-25.2h39l-35,49.8l37.4,53.8h-41.4l-18.4-28.2l-18.6,28.2h-39.4l37.8-52.4
	l-35.4-51.2H628.52z"/>
<path class="st0" d="M779.32,122.11c-3-0.6-5.8-0.8-8.6-0.8c-14.2,0-24.6,6.6-24.6,21v46.6h-37.2V85.31h37.2v13.6
	c5.2-8.2,15.8-15.2,28.2-15.2c1.6,0,3.4,0.2,5,0.4V122.11z"/>
<path class="st0" d="M840.92,82.91c30.4,0,56.8,22.4,56.8,54.2c0,31.8-26.4,54.2-56.8,54.2s-56.8-22.4-56.8-54.2
	C784.12,105.31,810.52,82.91,840.92,82.91z M840.92,159.91c13,0,22.4-10,22.4-22.8s-9.4-22.8-22.4-22.8s-22.4,10-22.4,22.8
	S827.92,159.91,840.92,159.91z"/>
<rect x="910.12" y="38.4" class="st0" width="37.2" height="150.51"/>
<rect x="965.72" y="38.4" class="st0" width="37.2" height="150.51"/>
<polygon class="st0" points="161.41,66.28 205.39,46.3 115.47,5.43 25.54,46.3 69.52,66.28 115.47,45.4 "/>
<polygon class="st0" points="115.25,106.38 5.99,56.72 5.99,206.75 94.95,247.18 72.05,196.8 42.38,183.31 42.38,127.6 
	22.14,104.13 97.27,138.18 97.27,186.65 115.47,194.92 133.66,186.65 133.66,138.18 133.97,138.04 208.79,104.13 188.55,127.6 
	188.55,183.31 158.94,196.77 136.04,247.15 224.95,206.75 224.95,56.72 115.47,106.48 "/>
</svg>
