<?xml version="1.0" encoding="utf-8"?>
<!-- Generator: Adobe Illustrator 27.0.1, SVG Export Plug-In . SVG Version: 6.00 Build 0)  -->
<svg version="1.1" id="Layer_1" xmlns="http://www.w3.org/2000/svg" xmlns:xlink="http://www.w3.org/1999/xlink" x="0px" y="0px"
	 viewBox="0 0 24 24" style="enable-background:new 0 0 24 24;" xml:space="preserve">
<style type="text/css">
	.st0{fill:#FFFFFF;}
</style>
<g>
	<path class="st0" d="M19.99,0.95H8.97c-1.84,0-3.34,1.5-3.34,3.34l0,12.93c0.04,1.1-0.15,3.55-1.03,4.08
		c-0.29,0.17-0.7,0.12-1.22-0.16c-0.78-0.73-1.41-1.92-1.41-3.85l0-12.03c0-0.3,0.24-0.54,0.54-0.54h1.15
		c0.33,0,0.61-0.27,0.61-0.61S4,3.51,3.67,3.51H2.51c-0.96,0-1.75,0.79-1.75,1.75l0,12.03c0,6.16,5.42,6.23,5.48,6.23H17.4
		c1.83,0,3.29-0.53,4.34-1.58c1.59-1.6,1.6-3.8,1.59-3.89l0-13.76C23.33,2.45,21.83,0.95,19.99,0.95z M22.11,18.05
		c0,0.17-0.06,4.25-4.72,4.25H6.24c-0.05,0-0.36-0.01-0.8-0.11c1.51-1.2,1.42-4.62,1.41-5l0-12.91c0-1.17,0.95-2.13,2.13-2.13h11.01
		c1.17,0,2.13,0.95,2.13,2.13V18.05z"/>
	<path class="st0" d="M19.41,4.42H9.59c-0.33,0-0.61,0.27-0.61,0.61v4.11c0,0.33,0.27,0.61,0.61,0.61h9.83
		c0.33,0,0.61-0.27,0.61-0.61V5.02C20.02,4.69,19.75,4.42,19.41,4.42z M18.81,8.53h-8.61v-2.9h8.61V8.53z"/>
	<path class="st0" d="M13.28,11.37H9.59c-0.33,0-0.61,0.27-0.61,0.61s0.27,0.61,0.61,0.61h3.69c0.33,0,0.61-0.27,0.61-0.61
		S13.61,11.37,13.28,11.37z"/>
	<path class="st0" d="M19.41,11.37h-3.66c-0.33,0-0.61,0.27-0.61,0.61s0.27,0.61,0.61,0.61h3.66c0.33,0,0.61-0.27,0.61-0.61
		S19.75,11.37,19.41,11.37z"/>
	<path class="st0" d="M13.28,14.04H9.59c-0.33,0-0.61,0.27-0.61,0.61c0,0.33,0.27,0.61,0.61,0.61h3.69c0.33,0,0.61-0.27,0.61-0.61
		C13.89,14.31,13.61,14.04,13.28,14.04z"/>
	<path class="st0" d="M19.41,14.04h-3.66c-0.33,0-0.61,0.27-0.61,0.61c0,0.33,0.27,0.61,0.61,0.61h3.66c0.33,0,0.61-0.27,0.61-0.61
		C20.02,14.31,19.75,14.04,19.41,14.04z"/>
	<path class="st0" d="M13.28,16.66H9.59c-0.33,0-0.61,0.27-0.61,0.61s0.27,0.61,0.61,0.61h3.69c0.33,0,0.61-0.27,0.61-0.61
		S13.61,16.66,13.28,16.66z"/>
	<path class="st0" d="M19.41,16.66h-3.66c-0.33,0-0.61,0.27-0.61,0.61s0.27,0.61,0.61,0.61h3.66c0.33,0,0.61-0.27,0.61-0.61
		S19.75,16.66,19.41,16.66z"/>
</g>
</svg>
