<?xml version="1.0" encoding="utf-8"?>
<!-- Generator: Adobe Illustrator 27.0.1, SVG Export Plug-In . SVG Version: 6.00 Build 0)  -->
<svg version="1.1" id="Layer_1" xmlns="http://www.w3.org/2000/svg" xmlns:xlink="http://www.w3.org/1999/xlink" x="0px" y="0px"
	 viewBox="0 0 24 24" style="enable-background:new 0 0 24 24;" xml:space="preserve">
<style type="text/css">
	.st0{fill:#FFFFFF;}
</style>
<path class="st0" d="M23.37,4.2c-0.32-1.41-2.6-3.55-7.34-3.33c-0.18,0.01-0.35,0.1-0.45,0.24l-0.99,1.34l-0.3-0.95
	c-0.05-0.15-0.16-0.28-0.3-0.35c-0.14-0.07-0.31-0.09-0.46-0.03c-0.06,0.02-1.55,0.52-2.68,1.13c-0.24,0.13-0.44,0.32-0.59,0.56
	L8.75,5.21L8.47,4.67C8.38,4.49,8.2,4.37,8,4.35C7.8,4.33,7.6,4.41,7.47,4.57L4.57,8.1C4.49,8.19,4.45,8.3,4.43,8.41l-0.25,2.2
	l-0.39-0.34c-0.14-0.12-0.33-0.17-0.51-0.13c-0.18,0.04-0.34,0.16-0.42,0.33c-0.05,0.11-1.24,2.62-0.77,5.29
	c0.06,0.33,0.37,0.54,0.69,0.49c0.33-0.06,0.54-0.37,0.49-0.69c-0.26-1.48,0.09-2.96,0.38-3.81l0.61,0.53
	c0.17,0.15,0.4,0.19,0.61,0.1c0.21-0.08,0.35-0.27,0.38-0.49l0.36-3.15l2.22-2.69l0.34,0.66C8.26,6.88,8.46,7,8.67,7.01
	C8.9,7.03,9.09,6.91,9.2,6.73l2.07-3.28c0.04-0.07,0.09-0.11,0.15-0.15c0.62-0.34,1.4-0.65,1.91-0.84l0.47,1.47
	c0.07,0.21,0.25,0.37,0.47,0.41c0.22,0.04,0.45-0.05,0.58-0.24l1.52-2.05c4.31-0.12,5.71,1.89,5.83,2.41
	c0.1,0.44,0.05,0.79-0.15,1.07c-0.39,0.55-1.29,0.76-1.64,0.81l-3.09,0.53c-0.22,0.04-0.41,0.2-0.47,0.42
	c-0.07,0.22-0.01,0.45,0.16,0.61l1.02,0.98c-2.43,1.13-4.48,3.24-5.07,3.87l-2.41,0.22c-0.21,0.02-0.39,0.15-0.49,0.34
	c-0.09,0.19-0.08,0.41,0.04,0.59l0.67,1.03c-3.38,3.12-5,3-5.92,2.65c4.49-8.3,10.8-11.74,13.96-12.4c0.32-0.07,0.53-0.39,0.46-0.71
	c-0.07-0.32-0.39-0.53-0.71-0.46c-1.28,0.27-4.69,1.29-8.67,4.99c-2.49,2.32-4.65,5.22-6.37,8.53c-0.02,0.03-0.04,0.05-0.06,0.08
	c-0.01,0.02-0.01,0.05-0.02,0.07c-0.52,1.01-1.01,2.06-1.44,3.15c-0.17,0.41-0.33,0.83-0.48,1.25c-0.05,0.13-0.09,0.25-0.12,0.37
	c-0.2,0.63-0.26,0.98-0.26,0.98s0.16-0.2,0.4-0.47c0.38-0.44,0.97-1.08,1.45-1.39c0.01-0.01,0.02-0.02,0.03-0.02
	c0.04-0.1,0.08-0.2,0.12-0.3c0.37-0.92,0.77-1.77,1.18-2.6c0.39,0.17,0.86,0.32,1.48,0.32c1.31,0,3.24-0.71,6.18-3.52
	c0.21-0.2,0.25-0.52,0.09-0.76l-0.4-0.61l1.65-0.15c0.15-0.01,0.3-0.09,0.4-0.2c0.03-0.03,2.7-3.06,5.6-4.07
	c0.2-0.07,0.34-0.23,0.39-0.44c0.04-0.2-0.02-0.42-0.17-0.56l-0.83-0.8l1.88-0.32c0.17-0.02,1.67-0.21,2.44-1.29
	C23.42,5.67,23.54,4.97,23.37,4.2z"/>
</svg>
