<?xml version="1.0" encoding="utf-8"?>
<!-- Generator: Adobe Illustrator 27.0.1, SVG Export Plug-In . SVG Version: 6.00 Build 0)  -->
<svg version="1.1" id="Layer_1" xmlns="http://www.w3.org/2000/svg" xmlns:xlink="http://www.w3.org/1999/xlink" x="0px" y="0px"
	 viewBox="0 0 24 24" style="enable-background:new 0 0 24 24;" xml:space="preserve">
<style type="text/css">
	.st0{fill:#FFFFFF;}
</style>
<path class="st0" d="M1.25,2.78h1.74c0.41,0,0.77,0.29,0.86,0.69l3.03,13.92c0.27,1.26,1.41,2.17,2.69,2.17h8.79
	c0.33,0,0.6-0.27,0.6-0.6s-0.27-0.6-0.6-0.6H9.58c-0.73,0-1.37-0.51-1.52-1.22L5.03,3.22C4.82,2.27,3.96,1.58,2.99,1.58H1.25
	c-0.33,0-0.6,0.27-0.6,0.6S0.92,2.78,1.25,2.78z"/>
<path class="st0" d="M21.34,4.04H9.52c-0.33,0-0.6,0.27-0.6,0.6s0.27,0.6,0.6,0.6h11.83c0.23,0,0.45,0.11,0.59,0.29
	c0.14,0.19,0.18,0.42,0.11,0.66l-1.89,7.26c-0.14,0.49-0.6,0.83-1.1,0.83h-7.11c-0.33,0-0.6,0.27-0.6,0.6s0.27,0.6,0.6,0.6h7.11
	c1.04,0,1.97-0.7,2.26-1.71l1.89-7.26c0.17-0.59,0.06-1.21-0.31-1.7C22.52,4.32,21.96,4.04,21.34,4.04z"/>
<ellipse transform="matrix(1 -1.122764e-03 1.122764e-03 1 -0.0243 9.794427e-03)" class="st0" cx="8.71" cy="21.62" rx="0.87" ry="0.87"/>
<ellipse transform="matrix(1 -1.122730e-03 1.122730e-03 1 -0.0243 0.0197)" class="st0" cx="17.5" cy="21.62" rx="0.87" ry="0.87"/>
<path class="st0" d="M19.61,7.91c0-0.33-0.27-0.6-0.6-0.6h-8.75c-0.33,0-0.6,0.27-0.6,0.6c0,0.33,0.27,0.6,0.6,0.6h8.75
	C19.34,8.51,19.61,8.24,19.61,7.91z"/>
<path class="st0" d="M11.12,10.78c-0.33,0-0.6,0.27-0.6,0.6c0,0.33,0.27,0.6,0.6,0.6h6.98c0.33,0,0.6-0.27,0.6-0.6
	c0-0.33-0.27-0.6-0.6-0.6H11.12z"/>
</svg>
