<svg width="23" height="18" viewBox="0 0 23 18" fill="none" xmlns="http://www.w3.org/2000/svg">
<g clip-path="url(#clip0_1508_35)">
<path d="M21.0987 0H1.90133C0.851 0 0 0.852026 0 1.90362V11.3373C0 12.3889 0.851 13.2409 1.90133 13.2409H9.46833V16.8409L5.89567 16.8563C5.58133 16.8563 5.32067 17.1173 5.32067 17.432C5.32067 17.7467 5.58133 18.0077 5.89567 18.0077L9.46067 17.9923H13.6007V17.9693L17.296 17.9539C17.6103 17.9539 17.871 17.693 17.871 17.3783C17.871 17.0635 17.6103 16.8026 17.296 16.8026L13.6007 16.8179V13.2333H21.0987C22.149 13.2333 23 12.3812 23 11.3296V1.90362C23 0.852026 22.149 0 21.0987 0ZM10.6107 16.8333V13.2409H12.4507V16.8256H10.6107V16.8333ZM21.85 11.345C21.85 11.7595 21.5127 12.0972 21.0987 12.0972H1.90133C1.48733 12.0972 1.15 11.7595 1.15 11.345V1.90362C1.15 1.48913 1.48733 1.15139 1.90133 1.15139H21.1063C21.5203 1.15139 21.8577 1.48913 21.8577 1.90362V11.3373L21.85 11.345Z" fill="white"/>
<path d="M14.0147 5.87204L9.936 3.83025C9.37634 3.55392 8.72467 3.95307 8.72467 4.58249V8.66607C8.72467 9.28782 9.37634 9.69464 9.936 9.41831L14.0147 7.37652C14.6357 7.06948 14.6357 6.18676 14.0147 5.87972V5.87204Z" fill="white"/>
</g>
<defs>
<clipPath id="clip0_1508_35">
<rect width="23" height="18" fill="white"/>
</clipPath>
</defs>
</svg>
